<?xml version="1.0" encoding="UTF-8" standalone="no"?>
<svg
   viewBox="0 0 500 500"
   version="1.1"
   id="svg322"
   sodipodi:docname="Headphone-amico-no-background.svg"
   inkscape:export-filename="/home/christian/Downloads/Headphone-amico.png"
   inkscape:export-xdpi="8.0959864"
   inkscape:export-ydpi="8.0959864"
   inkscape:version="1.1.2 (0a00cf5339, 2022-02-04)"
   xmlns:inkscape="http://www.inkscape.org/namespaces/inkscape"
   xmlns:sodipodi="http://sodipodi.sourceforge.net/DTD/sodipodi-0.dtd"
   xmlns="http://www.w3.org/2000/svg"
   xmlns:svg="http://www.w3.org/2000/svg">
  <defs
     id="defs326" />
  <sodipodi:namedview
     id="namedview324"
     pagecolor="#ffffff"
     bordercolor="#666666"
     borderopacity="1.0"
     inkscape:pageshadow="2"
     inkscape:pageopacity="0.0"
     inkscape:pagecheckerboard="0"
     showgrid="false"
     inkscape:zoom="1.564"
     inkscape:cx="187.97954"
     inkscape:cy="224.10486"
     inkscape:window-width="1846"
     inkscape:window-height="1016"
     inkscape:window-x="0"
     inkscape:window-y="0"
     inkscape:window-maximized="1"
     inkscape:current-layer="svg322" />
  <g
     id="freepik--Headphones--inject-9"
     transform="matrix(1.4019773,0,0,1.4019773,11.619268,-41.761438)">
    <g
       id="freepik--headphones--inject-9">
      <path
         d="m 236.11,189.8 c -0.37,0.15 -0.74,0.29 -1.09,0.47 -0.35,0.18 -0.57,0.3 -0.84,0.45 -0.27,0.15 -0.68,0.39 -1,0.6 -0.32,0.21 -0.53,0.37 -0.79,0.57 -0.26,0.2 -0.61,0.48 -0.91,0.74 -0.3,0.26 -0.48,0.43 -0.71,0.66 -0.23,0.23 -0.56,0.57 -0.83,0.87 -0.27,0.3 -0.43,0.51 -0.64,0.77 -0.21,0.26 -0.5,0.66 -0.74,1 -0.24,0.34 -0.37,0.54 -0.54,0.82 l -0.12,0.2 c -0.19,0.32 -0.37,0.65 -0.54,1 -0.06,0.1 -0.11,0.2 -0.16,0.3 -0.14,0.27 -0.28,0.55 -0.4,0.83 -0.12,0.28 -0.22,0.5 -0.32,0.75 -0.1,0.25 -0.14,0.31 -0.2,0.48 l -0.18,0.45 c -0.12,0.32 -0.23,0.65 -0.33,1 -0.1,0.35 -0.19,0.58 -0.27,0.87 -0.15,0.53 -0.3,1.07 -0.42,1.63 q -0.14,0.56 -0.24,1.14 c 0,0.21 -0.08,0.41 -0.12,0.63 -0.04,0.22 -0.08,0.45 -0.11,0.69 -0.09,0.56 -0.15,1.15 -0.21,1.74 0,0.28 -0.07,0.55 -0.09,0.83 0,0.11 0,0.21 0,0.32 -0.07,1 -0.11,1.94 -0.11,2.95 a 54.35,54.35 0 0 0 1.45,12.09 C 229.37,241 240,257.9 253,267.57 a 48.68,48.68 0 0 0 4.76,3.18 l 0.68,0.37 c 0.38,0.21 0.76,0.43 1.14,0.62 l 0.87,0.43 0.94,0.45 0.95,0.41 0.83,0.34 c 0.33,0.13 0.65,0.25 1,0.36 l 0.79,0.27 0.95,0.3 0.84,0.22 0.86,0.22 1.14,0.22 0.53,0.1 0.45,0.05 6.82,-3.92 A 33.43,33.43 0 0 1 264.6,266.82 C 246,256.1 231,230 231,208.6 c 0,-8.69 2.48,-15.27 6.66,-19.33 l -0.66,0.19 c -0.31,0.1 -0.6,0.22 -0.89,0.34 z"
         style="fill:#263238"
         id="path51" />
      <path
         d="m 242.13,182.56 a 18.37,18.37 0 0 0 -3,1.36 l -6.79,3.92 c 0,0 0,0 0,0 a 20.46,20.46 0 0 1 9.79,-2.65 z"
         style="fill:#37474f"
         id="path53" />
      <path
         d="m 269.29,275.06 -0.53,-0.1 -1.14,-0.22 -0.86,-0.22 -0.56,-0.14 -0.28,-0.08 -0.92,-0.3 -0.79,-0.27 -1,-0.36 -0.83,-0.34 -0.95,-0.41 -0.94,-0.45 -0.87,-0.43 c -0.38,-0.19 -0.77,-0.41 -1.16,-0.63 -0.21,-0.12 -0.43,-0.22 -0.65,-0.35 A 50.27,50.27 0 0 1 253.21,267.7 65.66,65.66 0 0 1 241.78,256.82 81.14,81.14 0 0 1 234,245.66 76.71,76.71 0 0 1 225.69,225 l -0.06,-0.34 a 54.32,54.32 0 0 1 -1.45,-12.07 c 0,-0.94 0,-1.85 0.1,-2.75 0,-0.13 0,-0.26 0,-0.39 a 2.45,2.45 0 0 1 0,-0.27 c 0.06,-0.75 0.14,-1.49 0.25,-2.21 l 0.06,-0.46 c 0,-0.24 0.09,-0.46 0.13,-0.7 0.04,-0.24 0.13,-0.66 0.2,-1 0.07,-0.34 0.14,-0.7 0.22,-1 0.08,-0.3 0.2,-0.72 0.31,-1.08 0,-0.14 0.07,-0.28 0.11,-0.41 0.04,-0.13 0,-0.11 0.05,-0.16 0.09,-0.29 0.18,-0.59 0.28,-0.88 0.1,-0.29 0.26,-0.68 0.4,-1 0.14,-0.32 0.34,-0.87 0.54,-1.29 0.2,-0.42 0.29,-0.58 0.44,-0.87 l 0.18,-0.34 c 0.16,-0.3 0.33,-0.59 0.5,-0.88 0.17,-0.29 0.33,-0.51 0.5,-0.76 l 0.23,-0.33 c 0.12,-0.19 0.25,-0.37 0.38,-0.54 l 0.31,-0.39 c 0.09,-0.11 0.17,-0.23 0.27,-0.34 l 0.55,-0.63 0.19,-0.19 c 0.23,-0.24 0.46,-0.48 0.71,-0.71 v 0 c 0.11,-0.1 0.24,-0.19 0.35,-0.28 0.3,-0.26 0.6,-0.51 0.91,-0.74 0.31,-0.23 0.52,-0.39 0.79,-0.57 0.27,-0.18 0.66,-0.41 1,-0.6 0.34,-0.19 0.55,-0.31 0.84,-0.45 0.29,-0.14 0.72,-0.32 1.09,-0.47 0.37,-0.15 0.58,-0.24 0.88,-0.34 0.3,-0.1 0.45,-0.14 0.68,-0.21 l 0.51,-0.13 c 0.3,-0.07 0.6,-0.16 0.91,-0.22 0.31,-0.06 0.88,-0.14 1.32,-0.19 0.44,-0.05 0.59,-0.09 0.9,-0.11 0.31,-0.02 0.54,0 0.82,0 v -3.36 a 20.46,20.46 0 0 0 -9.79,2.65 v 0 c -0.42,0.25 -0.83,0.51 -1.24,0.79 l -0.21,0.14 a 20.1,20.1 0 0 0 -3.21,2.85 l -0.33,0.36 c -0.29,0.33 -0.57,0.67 -0.85,1 l -0.24,0.35 a 22.52,22.52 0 0 0 -1.29,1.94 c -0.14,0.25 -0.29,0.5 -0.43,0.76 -0.14,0.26 -0.35,0.66 -0.52,1 -0.17,0.34 -0.32,0.69 -0.48,1 -0.16,0.31 -0.3,0.7 -0.44,1.06 -0.22,0.56 -0.42,1.14 -0.61,1.73 -0.08,0.28 -0.17,0.57 -0.25,0.86 -0.14,0.5 -0.27,1 -0.4,1.53 -0.06,0.26 -0.12,0.51 -0.17,0.77 q -0.25,1.14 -0.42,2.34 c 0,0.2 -0.05,0.4 -0.07,0.59 -0.09,0.68 -0.16,1.36 -0.21,2 0,0.25 0,0.5 -0.05,0.75 -0.06,0.89 -0.09,1.79 -0.09,2.71 a 61,61 0 0 0 2.81,17.48 80.8,80.8 0 0 0 3.26,8.81 q 1,2.18 2,4.31 a 87.13,87.13 0 0 0 7.51,12.21 c 5.63,7.65 12.42,14.14 19.72,18.35 a 39.22,39.22 0 0 0 9.25,4 l 4.36,-2.5 z"
         style="fill:#455a64"
         id="path55" />
      <path
         d="m 303.51,241.11 c 0,-19.56 -13.73,-43.34 -30.67,-53.12 -8.5,-4.9 -16.18,-5.35 -21.73,-2.12 -1.69,1 -13,7.51 -14.73,8.48 -5.58,3.19 -9,10.07 -9,19.88 0,19.56 13.73,43.34 30.67,53.12 8.48,4.9 16.16,5.35 21.71,2.13 1.7,-1 13.1,-7.54 14.81,-8.53 5.51,-3.2 8.94,-10.07 8.94,-19.84 z"
         style="fill:#3e4932"
         id="path57" />
      <path
         d="m 303.51,241.11 c 0,-19.56 -13.73,-43.34 -30.67,-53.12 -8.5,-4.9 -16.18,-5.35 -21.73,-2.12 -1.69,1 -13,7.51 -14.73,8.48 -5.58,3.19 -9,10.07 -9,19.88 0,19.56 13.73,43.34 30.67,53.12 8.48,4.9 16.16,5.35 21.71,2.13 1.7,-1 13.1,-7.54 14.81,-8.53 5.51,-3.2 8.94,-10.07 8.94,-19.84 z"
         style="opacity:0.3"
         id="path59" />
      <path
         d="m 258,196.52 c 16.93,9.78 30.66,33.57 30.66,53.12 0,19.55 -13.66,27.49 -30.66,17.71 -17,-9.78 -30.67,-33.56 -30.67,-53.12 0,-19.56 13.75,-27.49 30.67,-17.71 z"
         style="fill:#3e4932"
         id="path61" />
      <path
         d="m 271,275.26 h 0.15 c 0.52,0 1,0.06 1.54,0.07 h 0.25 a 17.57,17.57 0 0 0 2.2,-0.13 h 0.08 a 17.24,17.24 0 0 0 1.82,-0.34 c 0.25,-0.05 0.51,-0.11 0.76,-0.18 0.47,-0.13 0.94,-0.28 1.4,-0.45 0.46,-0.17 0.69,-0.28 1,-0.44 0.17,-0.07 0.32,-0.15 0.48,-0.23 a 16.2,16.2 0 0 0 4,-2.86 19.72,19.72 0 0 1 -8.18,0.49 l -6.82,3.92 c 0.48,0.06 0.9,0.12 1.32,0.15 z"
         style="fill:#263238"
         id="path63" />
      <path
         d="m 266.29,190.72 a 10.71,10.71 0 0 0 3.18,6.93 c 14.61,13.43 25.29,35.23 25.29,53.7 0,13.44 -5.64,23 -14.86,26.21 v 0 a 16.34,16.34 0 0 0 3.37,-1.54 l 6.79,-3.92 c 7.22,-4.16 11.52,-13 11.52,-24.69 0,-18.46 -10.69,-40.27 -25.3,-53.69 a 10.78,10.78 0 0 1 -3.18,-6.93 v -27.21 l -6.81,3.94 -3.36,-1.94 3.36,1.94 z"
         style="fill:#37474f"
         id="path65" />
      <path
         d="m 269.47,197.65 a 10.71,10.71 0 0 1 -3.18,-6.93 v -27.2 l -3.36,-1.94 v 30.77 a 6.62,6.62 0 0 0 0.14,1.22 l 0.06,0.3 a 10,10 0 0 0 0.37,1.26 12,12 0 0 0 0.89,1.84 l 0.28,0.41 a 8.72,8.72 0 0 0 0.88,1.17 6.44,6.44 0 0 0 0.64,0.64 v 0 c 0.81,0.71 1.6,1.45 2.38,2.2 l 0.62,0.61 c 0.68,0.68 1.35,1.37 2,2.09 l 0.3,0.31 c 0.74,0.81 1.46,1.64 2.18,2.5 l 0.54,0.66 c 0.59,0.72 1.17,1.46 1.73,2.2 l 0.41,0.54 c 0.67,0.89 1.32,1.81 1.95,2.73 l 0.44,0.67 c 0.52,0.77 1,1.56 1.51,2.35 l 0.42,0.68 c 0.59,1 1.15,1.94 1.7,2.93 l 0.31,0.59 c 0.45,0.83 0.89,1.67 1.31,2.52 l 0.39,0.79 q 0.74,1.51 1.41,3.06 c 0.05,0.14 0.11,0.27 0.16,0.41 0.39,0.91 0.76,1.83 1.12,2.76 0.1,0.28 0.21,0.55 0.31,0.83 0.39,1 0.76,2.11 1.09,3.16 0.33,1.05 0.64,2.12 0.92,3.18 l 0.18,0.68 c 0.26,1 0.5,2.06 0.71,3.09 l 0.09,0.52 q 0.28,1.42 0.48,2.82 c 0,0.17 0.05,0.35 0.08,0.52 0.13,1 0.24,2 0.31,3 0,0.22 0,0.44 0.05,0.66 0.06,1 0.11,2.06 0.11,3.07 0,6 -1.19,11 -3.32,14.91 a 19.36,19.36 0 0 1 -1.55,2.4 c -0.28,0.37 -0.57,0.73 -0.87,1.07 -0.3,0.34 -0.61,0.66 -0.93,1 a 16.2,16.2 0 0 1 -4,2.86 c -0.15,0.08 -0.31,0.16 -0.48,0.23 -0.33,0.16 -0.67,0.31 -1,0.44 -0.33,0.13 -0.86,0.3 -1.29,0.42 h -0.11 c -0.25,0.07 -0.5,0.13 -0.76,0.18 l -0.45,0.12 c -0.45,0.09 -0.91,0.16 -1.37,0.22 h -0.08 a 17.57,17.57 0 0 1 -2.2,0.13 h -0.57 c -0.4,0 -0.81,0 -1.22,-0.07 H 271 c -0.42,0 -0.84,-0.08 -1.27,-0.14 l -4.36,2.5 a 27.6,27.6 0 0 0 7.44,1.08 c 0.34,0 0.67,0 1,-0.05 0.33,-0.05 0.91,0 1.33,-0.07 l 0.77,-0.11 c 0.49,-0.07 1,-0.14 1.43,-0.23 0.23,0 0.46,-0.1 0.69,-0.16 l 0.28,-0.08 c 0.43,-0.11 0.86,-0.21 1.28,-0.35 l 0.3,-0.09 c 9.22,-3.18 14.86,-12.77 14.86,-26.21 0.01,-18.44 -10.67,-40.24 -25.28,-53.67 z"
         style="fill:#455a64"
         id="path67" />
      <path
         d="m 251,189.24 0.14,-0.06 a 1,1 0 0 0 0.23,-0.12 l 6.82,-3.94 a 2.89,2.89 0 0 0 1.33,-2.64 v -30.77 l -6.81,3.94 v 30.77 a 2.81,2.81 0 0 1 -1.71,2.82 z"
         style="fill:#37474f"
         id="path69" />
      <path
         d="m 242.78,185.18 a 27.29,27.29 0 0 1 4.88,0.46 1.3,1.3 0 0 0 1.64,-1.32 v -3.06 a 21.84,21.84 0 0 0 -7.17,1.3 v 2.66 c 0.22,-0.01 0.43,-0.04 0.65,-0.04 z"
         style="fill:#37474f"
         id="path71" />
      <path
         d="m 243.64,188.56 a 22.66,22.66 0 0 1 2.42,0.22 c 0.78,0.12 1.58,0.28 2.38,0.48 h 0.15 0.08 v 0 a 5.52,5.52 0 0 0 0.78,0.13 h 0.07 a 3.48,3.48 0 0 0 0.65,0 h 0.12 a 3.76,3.76 0 0 0 0.6,-0.15 v 0 a 2.81,2.81 0 0 0 1.71,-2.82 v -30.77 0 l -3.36,-2 v 30.62 a 1.3,1.3 0 0 1 -1.64,1.32 27.29,27.29 0 0 0 -4.88,-0.46 c -0.22,0 -0.43,0 -0.65,0 v 3.36 c 0.24,0 0.47,0 0.71,0 0.24,0 0.59,0.06 0.86,0.07 z"
         style="fill:#455a64"
         id="path73" />
      <path
         d="m 300.37,259.71 c 0,-28.9 -20.29,-64 -45.32,-78.49 -12.5,-7.22 -23.81,-7.9 -32,-3.18 l -13.69,7.9 c -8.18,4.74 -13.25,14.87 -13.25,29.31 0,28.9 20.29,64 45.31,78.49 12.5,7.21 23.81,7.9 32,3.18 L 287.1,289 c 8.2,-4.71 13.27,-14.85 13.27,-29.29 z"
         style="fill:#3e4932"
         id="path75" />
      <ellipse
         cx="241.42"
         cy="241.41"
         rx="37"
         ry="64.089996"
         transform="rotate(-30,241.41519,241.407)"
         style="opacity:0.1"
         id="ellipse77" />
      <path
         d="m 286.76,267.58 c 0,-28.9 -20.29,-64 -45.32,-78.49 -12.52,-7.23 -23.85,-7.9 -32.05,-3.15 l -6.78,3.91 c -8.22,4.73 -13.3,14.88 -13.3,29.34 0,28.9 20.29,64 45.31,78.49 12.52,7.22 23.85,7.9 32.05,3.16 l 6.82,-3.94 c 8.19,-4.73 13.27,-14.9 13.27,-29.32 z"
         style="fill:#f0f0f0"
         id="path79" />
      <path
         d="m 234.62,193 c 25,14.45 45.32,49.59 45.32,78.49 0,28.9 -20.29,40.61 -45.32,26.16 -25.03,-14.45 -45.31,-49.59 -45.31,-78.49 0,-28.9 20.29,-40.58 45.31,-26.16 z"
         style="fill:#e0e0e0"
         id="path81" />
      <path
         d="m 283.27,271.52 c 0,-29.92 -21.08,-66.43 -47,-81.39 -7.63,-4.41 -15,-6.64 -21.92,-6.64 a 26.44,26.44 0 0 0 -13.5,3.49 c -2.26,1.32 -11.4,6.55 -13.72,7.9 -9.3,5.45 -14.84,16.91 -14.84,32.19 0,29.92 21.08,66.43 47,81.39 7.63,4.41 15,6.64 21.92,6.64 a 26.42,26.42 0 0 0 13.58,-3.54 c 2.22,-1.31 11.25,-6.47 13.55,-7.8 9.36,-5.43 14.93,-16.91 14.93,-32.24 z"
         style="fill:#455a64"
         id="path83" />
      <path
         d="m 241.21,315.1 c -6.91,0 -14.29,-2.23 -21.92,-6.64 -25.91,-15 -47,-51.47 -47,-81.39 0,-21.7 11.16,-35.71 28.43,-35.71 6.92,0 14.29,2.23 21.92,6.64 25.91,15 47,51.47 47,81.39 0,21.69 -11.16,35.71 -28.43,35.71 z"
         style="fill:#37474f"
         id="path85" />
      <path
         d="m 231.08,284.13 a 22.1,22.1 0 0 1 -11,-3.32 c -12.94,-7.47 -23.47,-25.7 -23.47,-40.65 0,-10.83 5.58,-17.83 14.2,-17.83 a 22.15,22.15 0 0 1 10.95,3.31 c 12.94,7.48 23.47,25.71 23.47,40.66 0.05,10.83 -5.53,17.83 -14.15,17.83 z"
         style="fill:#263238"
         id="path87" />
      <path
         d="m 173.28,335 c 0,-29.92 -21.08,-66.43 -47,-81.4 -7.63,-4.4 -15,-6.63 -21.91,-6.63 a 26.39,26.39 0 0 0 -13.5,3.49 c -2.26,1.32 -11.41,6.55 -13.72,7.9 -9.31,5.45 -14.85,16.91 -14.85,32.18 0,29.92 21.08,66.44 47,81.4 7.63,4.41 15,6.64 21.91,6.64 A 26.39,26.39 0 0 0 144.8,375 c 2.23,-1.31 11.26,-6.47 13.55,-7.8 9.36,-5.39 14.93,-16.87 14.93,-32.2 z"
         style="fill:#455a64"
         id="path89" />
      <path
         d="m 131.22,378.58 c -6.91,0 -14.28,-2.23 -21.91,-6.64 -25.92,-15 -47,-51.48 -47,-81.4 0,-21.69 11.16,-35.7 28.44,-35.7 6.91,0 14.28,2.23 21.91,6.63 25.91,15 47,51.48 47,81.4 -0.01,21.69 -11.17,35.71 -28.44,35.71 z"
         style="fill:#37474f"
         id="path91" />
      <path
         d="m 156.3,342.87 c 0,-28.9 -20.29,-64 -45.32,-78.49 -12.52,-7.23 -23.85,-7.91 -32,-3.16 l -6.78,3.92 c -8.21,4.73 -13.3,14.87 -13.3,29.33 0,28.9 20.29,64 45.32,78.49 12.52,7.23 23.84,7.9 32,3.17 l 6.82,-3.94 c 8.19,-4.74 13.26,-14.88 13.26,-29.32 z"
         style="fill:#f0f0f0"
         id="path93" />
      <path
         d="m 104.17,268.31 c 25,14.45 45.32,49.59 45.32,78.49 0,28.9 -20.29,40.61 -45.32,26.2 -25.03,-14.41 -45.32,-49.59 -45.32,-78.49 0,-28.9 20.29,-40.65 45.32,-26.2 z"
         style="fill:#e0e0e0"
         id="path95" />
      <path
         d="m 149.49,346.8 c 0,-28.9 -20.29,-64 -45.32,-78.49 -12.5,-7.22 -23.81,-7.9 -32,-3.18 L 58.48,273 c -8.19,4.74 -13.26,14.88 -13.26,29.31 0,28.9 20.29,64 45.32,78.49 12.49,7.22 23.8,7.9 32,3.18 l 13.67,-7.89 c 8.2,-4.7 13.28,-14.84 13.28,-29.29 z"
         style="fill:#3e4932"
         id="path97" />
      <path
         d="m 90.54,276.18 c 25,14.45 45.31,49.59 45.31,78.49 0,28.9 -20.28,40.61 -45.31,26.16 -25.03,-14.45 -45.32,-49.59 -45.32,-78.49 0,-28.9 20.29,-40.61 45.32,-26.16 z"
         style="opacity:0.1"
         id="path99" />
      <path
         d="m 58,292.63 c -0.37,0.14 -0.74,0.29 -1.1,0.46 -0.36,0.17 -0.56,0.3 -0.83,0.46 -0.27,0.16 -0.68,0.39 -1,0.6 -0.32,0.21 -0.53,0.37 -0.79,0.57 -0.26,0.2 -0.61,0.47 -0.91,0.73 l -0.72,0.67 c -0.28,0.28 -0.55,0.57 -0.82,0.87 -0.27,0.3 -0.44,0.51 -0.65,0.77 -0.21,0.26 -0.49,0.66 -0.73,1 -0.24,0.34 -0.37,0.55 -0.54,0.83 l -0.12,0.2 c -0.19,0.32 -0.37,0.64 -0.55,1 l -0.15,0.3 c -0.14,0.27 -0.28,0.54 -0.41,0.82 -0.13,0.28 -0.21,0.5 -0.31,0.75 -0.1,0.25 -0.14,0.32 -0.2,0.48 l -0.18,0.46 c -0.12,0.32 -0.23,0.65 -0.34,1 -0.11,0.35 -0.18,0.58 -0.26,0.87 q -0.24,0.79 -0.42,1.62 c -0.09,0.38 -0.17,0.76 -0.24,1.15 l -0.12,0.62 c 0,0.23 -0.08,0.46 -0.11,0.69 -0.09,0.57 -0.15,1.15 -0.21,1.74 0,0.28 -0.07,0.55 -0.09,0.84 0,0.1 0,0.21 0,0.32 -0.07,0.95 -0.11,1.93 -0.11,2.95 a 54.35,54.35 0 0 0 1.45,12.09 c 3.74,16.38 14.38,33.28 27.4,42.95 a 52.56,52.56 0 0 0 4.76,3.18 l 0.68,0.37 1.14,0.62 0.87,0.43 0.94,0.44 c 0.32,0.15 0.63,0.28 1,0.41 0.37,0.13 0.55,0.24 0.83,0.34 l 1,0.37 0.78,0.27 1,0.29 0.84,0.23 0.86,0.21 c 0.38,0.09 0.76,0.16 1.14,0.23 l 0.52,0.1 0.45,0.05 6.67,-3.98 a 33.24,33.24 0 0 1 -12,-4.37 C 67.85,358.91 52.8,332.86 52.8,311.41 c 0,-8.68 2.48,-15.26 6.66,-19.32 -0.22,0.06 -0.45,0.11 -0.66,0.18 z"
         style="fill:#263238"
         id="path101" />
      <path
         d="m 64,285.39 a 19.22,19.22 0 0 0 -3,1.35 l -6.79,3.92 A 20.46,20.46 0 0 1 64,288.05 Z"
         style="fill:#37474f"
         id="path103" />
      <path
         d="m 91.14,377.89 -0.52,-0.1 c -0.38,-0.07 -0.75,-0.14 -1.14,-0.23 -0.39,-0.09 -0.57,-0.14 -0.86,-0.21 l -0.57,-0.14 -0.27,-0.09 -1,-0.29 -0.8,-0.27 -1,-0.37 c -0.28,-0.1 -0.55,-0.22 -0.83,-0.34 l -1,-0.4 -0.94,-0.45 -0.87,-0.43 -1.16,-0.63 -0.65,-0.35 a 52.42,52.42 0 0 1 -4.6,-3.06 65.66,65.66 0 0 1 -11.43,-10.88 80.88,80.88 0 0 1 -7.74,-11.16 76.77,76.77 0 0 1 -8.34,-20.72 c 0,-0.11 0,-0.22 -0.07,-0.34 A 54.73,54.73 0 0 1 46,315.37 c 0,-0.94 0,-1.85 0.1,-2.75 0,-0.13 0,-0.27 0,-0.4 a 2.65,2.65 0 0 1 0,-0.27 c 0.06,-0.75 0.14,-1.48 0.25,-2.2 l 0.06,-0.46 c 0,-0.24 0.09,-0.47 0.13,-0.7 0.04,-0.23 0.13,-0.66 0.19,-1 0.06,-0.34 0.14,-0.7 0.23,-1 0.09,-0.3 0.2,-0.73 0.3,-1.09 l 0.12,-0.4 a 0.94,0.94 0 0 0 0,-0.16 c 0.1,-0.3 0.19,-0.59 0.29,-0.88 0.1,-0.29 0.26,-0.69 0.39,-1 0.13,-0.31 0.35,-0.87 0.55,-1.28 0.2,-0.41 0.29,-0.58 0.44,-0.87 l 0.18,-0.35 c 0.16,-0.29 0.33,-0.59 0.5,-0.87 0.17,-0.28 0.33,-0.51 0.5,-0.76 l 0.22,-0.34 0.55,-0.59 0.3,-0.38 c 0.1,-0.11 0.18,-0.23 0.28,-0.34 0.1,-0.11 0.36,-0.42 0.55,-0.63 l 0.18,-0.19 0.71,-0.71 v 0 c 0.11,-0.1 0.24,-0.18 0.35,-0.28 0.3,-0.26 0.6,-0.5 0.91,-0.73 0.31,-0.23 0.52,-0.39 0.79,-0.57 0.27,-0.18 0.66,-0.41 1,-0.6 0.34,-0.19 0.55,-0.32 0.83,-0.46 0.28,-0.14 0.73,-0.32 1.1,-0.46 l 0.88,-0.35 0.68,-0.2 L 60,292 c 0.3,-0.08 0.6,-0.16 0.91,-0.22 0.31,-0.06 0.87,-0.14 1.32,-0.19 0.3,0 0.59,-0.09 0.9,-0.12 0.31,-0.03 0.54,0 0.82,0 v -3.36 a 20.46,20.46 0 0 0 -9.79,2.65 v 0 c -0.43,0.24 -0.84,0.51 -1.24,0.78 l -0.21,0.15 a 20.11,20.11 0 0 0 -3.22,2.85 l -0.32,0.36 c -0.29,0.33 -0.57,0.67 -0.85,1 -0.08,0.11 -0.16,0.23 -0.25,0.34 -0.45,0.62 -0.88,1.27 -1.28,2 l -0.43,0.75 c -0.18,0.33 -0.35,0.67 -0.52,1 -0.17,0.33 -0.32,0.69 -0.48,1.05 -0.16,0.36 -0.3,0.69 -0.44,1.06 -0.22,0.56 -0.42,1.13 -0.61,1.72 -0.09,0.28 -0.17,0.57 -0.25,0.86 -0.14,0.51 -0.28,1 -0.4,1.54 l -0.18,0.77 c -0.16,0.76 -0.3,1.54 -0.41,2.34 0,0.19 0,0.4 -0.07,0.59 -0.09,0.67 -0.16,1.35 -0.21,2 l -0.06,0.75 c -0.05,0.89 -0.09,1.79 -0.09,2.71 a 60.72,60.72 0 0 0 2.78,17.45 80.64,80.64 0 0 0 3.26,8.8 q 0.95,2.17 2,4.31 a 86,86 0 0 0 7.51,12.21 c 5.63,7.65 12.42,14.14 19.72,18.36 a 40.07,40.07 0 0 0 9.25,4 L 91.52,378 Z"
         style="fill:#455a64"
         id="path105" />
      <path
         d="m 121.21,346.21 c 0,-19.55 -13.73,-43.34 -30.67,-53.12 -8.5,-4.9 -16.18,-5.35 -21.73,-2.11 l -14.73,8.47 c -5.58,3.19 -9,10.08 -9,19.88 0,19.56 13.73,43.34 30.67,53.12 8.48,4.9 16.16,5.36 21.71,2.13 l 14.81,-8.52 c 5.51,-3.21 8.94,-10.06 8.94,-19.85 z"
         style="fill:#3e4932"
         id="path107" />
      <path
         d="m 121.21,346.21 c 0,-19.55 -13.73,-43.34 -30.67,-53.12 -8.5,-4.9 -16.18,-5.35 -21.73,-2.11 l -14.73,8.47 c -5.58,3.19 -9,10.08 -9,19.88 0,19.56 13.73,43.34 30.67,53.12 8.48,4.9 16.16,5.36 21.71,2.13 l 14.81,-8.52 c 5.51,-3.21 8.94,-10.06 8.94,-19.85 z"
         style="opacity:0.3"
         id="path109" />
      <ellipse
         cx="75.720001"
         cy="337.04001"
         rx="25.040001"
         ry="43.369999"
         transform="rotate(-30,75.708769,337.0461)"
         style="fill:#3e4932"
         id="ellipse111" />
      <ellipse
         cx="74.519997"
         cy="337.79001"
         rx="19.43"
         ry="33.66"
         transform="matrix(0.87,-0.5,0.5,0.87,-158.91,82.51)"
         style="fill:#263238"
         id="ellipse113" />
      <path
         d="M 87.54,324.33 73.46,338.39 56.65,309.26 c 4.29,-2.5 10.25,-2.14 16.81,1.65 a 46.56,46.56 0 0 1 14.08,13.42 z"
         style="fill:#455a64"
         id="path115" />
      <path
         d="m 97.27,352.15 c 0,7.58 -2.67,12.92 -7,15.38 L 73.46,338.39 87.54,324.33 c 5.89,8.41 9.73,18.67 9.73,27.82 z"
         style="fill:#37474f"
         id="path117" />
      <path
         d="M 90.29,367.53 C 86,370 80,369.68 73.46,365.89 A 45.77,45.77 0 0 1 59.4,352.45 l 14.06,-14.06 z"
         style="fill:#455a64"
         id="path119" />
      <path
         d="M 73.46,338.39 59.4,352.45 c -5.91,-8.4 -9.73,-18.69 -9.73,-27.78 0,-7.6 2.67,-12.92 7,-15.41 z"
         style="fill:#37474f"
         id="path121" />
      <path
         d="M 92.86,378.09 H 93 c 0.52,0 1,0.06 1.54,0.06 h 0.25 c 0.75,0 1.48,-0.05 2.2,-0.13 h 0.08 a 15.76,15.76 0 0 0 1.82,-0.33 c 0.25,-0.06 0.51,-0.11 0.76,-0.18 0.47,-0.13 0.94,-0.29 1.39,-0.46 0.45,-0.17 0.7,-0.28 1,-0.43 l 0.48,-0.24 a 15.91,15.91 0 0 0 4,-2.85 19.73,19.73 0 0 1 -8.18,0.48 l -6.83,3.93 c 0.49,0.06 0.93,0.12 1.35,0.15 z"
         style="fill:#263238"
         id="path123" />
      <path
         d="m 88.15,293.55 a 10.73,10.73 0 0 0 3.18,6.93 c 14.6,13.42 25.29,35.23 25.29,53.69 0,13.45 -5.64,23 -14.86,26.21 v 0 a 16,16 0 0 0 3.37,-1.53 l 6.79,-3.92 c 7.22,-4.16 11.52,-13 11.52,-24.69 0,-18.46 -10.69,-40.27 -25.3,-53.69 A 10.75,10.75 0 0 1 95,289.62 v -27.21 l -6.81,3.94 -3.36,-1.94 3.36,1.94 z"
         style="fill:#37474f"
         id="path125" />
      <path
         d="m 91.33,300.48 a 10.73,10.73 0 0 1 -3.18,-6.93 v -27.2 l -3.36,-1.94 v 30.77 a 6.52,6.52 0 0 0 0.14,1.21 l 0.06,0.31 a 10,10 0 0 0 0.37,1.26 11.45,11.45 0 0 0 0.89,1.83 c 0.09,0.15 0.18,0.28 0.28,0.42 a 9.6,9.6 0 0 0 0.87,1.17 7.81,7.81 0 0 0 0.65,0.64 v 0 c 0.81,0.7 1.6,1.44 2.38,2.2 l 0.62,0.61 c 0.68,0.68 1.35,1.37 2,2.08 l 0.3,0.32 c 0.74,0.81 1.46,1.64 2.17,2.49 0.19,0.22 0.37,0.45 0.55,0.67 0.59,0.72 1.17,1.45 1.73,2.2 0.14,0.18 0.28,0.35 0.41,0.53 0.67,0.9 1.31,1.81 2,2.74 l 0.44,0.67 c 0.52,0.77 1,1.55 1.51,2.34 l 0.42,0.69 c 0.59,1 1.15,1.94 1.7,2.92 l 0.31,0.6 c 0.45,0.83 0.89,1.67 1.31,2.52 l 0.39,0.78 c 0.49,1 1,2 1.4,3.07 0.06,0.13 0.12,0.27 0.17,0.4 q 0.59,1.38 1.11,2.76 c 0.11,0.28 0.22,0.56 0.32,0.84 0.38,1.05 0.76,2.1 1.09,3.16 0.33,1.06 0.63,2.12 0.92,3.18 0.06,0.22 0.12,0.45 0.17,0.68 q 0.41,1.54 0.72,3.09 l 0.09,0.52 c 0.19,0.94 0.34,1.88 0.48,2.82 0,0.17 0,0.34 0.07,0.51 0.14,1 0.24,2 0.32,3 0,0.22 0,0.44 0,0.66 0.06,1 0.11,2.05 0.11,3.06 0,6 -1.19,11.05 -3.32,14.92 a 19.36,19.36 0 0 1 -1.55,2.4 c -0.28,0.37 -0.57,0.73 -0.87,1.07 -0.3,0.34 -0.61,0.66 -0.93,1 a 15.91,15.91 0 0 1 -4,2.85 l -0.48,0.24 c -0.34,0.15 -0.68,0.3 -1,0.43 -0.32,0.13 -0.85,0.31 -1.28,0.43 h -0.11 c -0.25,0.07 -0.51,0.12 -0.76,0.18 l -0.45,0.11 c -0.45,0.09 -0.91,0.17 -1.37,0.22 H 97 a 19.85,19.85 0 0 1 -2.2,0.13 h -0.57 c -0.4,0 -0.81,0 -1.22,-0.07 h -0.15 c -0.42,0 -0.85,-0.09 -1.27,-0.15 l -4.36,2.51 a 27.55,27.55 0 0 0 7.44,1.08 c 0.34,0 0.67,0 1,0 0.33,0 0.91,0 1.33,-0.07 l 0.77,-0.11 c 0.49,-0.07 1,-0.14 1.42,-0.23 l 0.7,-0.16 0.28,-0.08 c 0.43,-0.11 0.86,-0.22 1.28,-0.35 l 0.3,-0.1 c 9.22,-3.17 14.86,-12.76 14.86,-26.21 0.01,-18.46 -10.68,-40.27 -25.28,-53.69 z"
         style="fill:#455a64"
         id="path127" />
      <path
         d="M 72.8,292.07 73,292 73.23,291.88 80,288 a 2.89,2.89 0 0 0 1.33,-2.64 v -30.82 l -6.81,3.94 v 30.76 a 2.81,2.81 0 0 1 -1.72,2.83 z"
         style="fill:#37474f"
         id="path129" />
      <path
         d="m 64.64,288 a 26.4,26.4 0 0 1 4.88,0.46 1.31,1.31 0 0 0 1.64,-1.32 v -3.06 a 21.29,21.29 0 0 0 -7.17,1.3 v 2.66 C 64.21,288 64.42,288 64.64,288 Z"
         style="fill:#37474f"
         id="path131" />
      <path
         d="m 65.5,291.38 c 0.79,0 1.6,0.11 2.42,0.23 a 23.33,23.33 0 0 1 2.38,0.48 0.58,0.58 0 0 1 0.14,0 h 0.09 a 4.49,4.49 0 0 0 0.79,0.13 h 0.07 a 4.61,4.61 0 0 0 0.65,0 h 0.12 a 2.93,2.93 0 0 0 0.6,-0.15 v 0 a 2.81,2.81 0 0 0 1.72,-2.83 v -30.76 0 l -3.36,-2 v 30.63 a 1.31,1.31 0 0 1 -1.64,1.32 26.4,26.4 0 0 0 -4.88,-0.46 c -0.22,0 -0.43,0 -0.65,0 v 3.36 h 0.71 c 0.34,0.06 0.57,0.04 0.84,0.05 z"
         style="fill:#455a64"
         id="path133" />
      <path
         d="m 76.65,239.7 c -1.24,-0.71 -2.94,-0.61 -4.82,0.48 A 15,15 0 0 0 65,252 c 0,2.19 0.77,3.73 2,4.43 l 27.24,15.72 9.6,-16.71 z"
         style="fill:#3e4932"
         id="path135" />
      <path
         d="m 76.65,239.7 c -1.24,-0.71 -2.94,-0.61 -4.82,0.48 A 15,15 0 0 0 65,252 c 0,2.19 0.77,3.73 2,4.43 l 27.24,15.72 9.6,-16.71 z"
         style="opacity:0.3"
         id="path137" />
      <path
         d="M 65.83,247.85 A 12.18,12.18 0 0 0 65,252 c 0,2.19 0.77,3.73 2,4.43 l 27.24,15.72 3.39,-5.9 z"
         style="opacity:0.3"
         id="path139" />
      <path
         d="m 92.27,267.72 a 15,15 0 0 1 6.82,-11.8 c 1.86,-1.08 3.55,-1.19 4.78,-0.5 1.23,0.69 2,2.24 2,4.43 a 15.08,15.08 0 0 1 -6.81,11.81 c -1.89,1.08 -3.59,1.19 -4.82,0.47 -1.23,-0.72 -1.97,-2.23 -1.97,-4.41 z"
         style="fill:#3e4932"
         id="path141" />
      <path
         d="m 92.27,267.72 a 15,15 0 0 1 6.82,-11.8 c 1.86,-1.08 3.55,-1.19 4.78,-0.5 1.23,0.69 2,2.24 2,4.43 a 15.08,15.08 0 0 1 -6.81,11.81 c -1.89,1.08 -3.59,1.19 -4.82,0.47 -1.23,-0.72 -1.97,-2.23 -1.97,-4.41 z"
         style="opacity:0.2"
         id="path143" />
      <path
         d="m 95.22,266 a 8.55,8.55 0 0 1 3.87,-6.7 2.35,2.35 0 0 1 3.86,2.24 8.55,8.55 0 0 1 -3.86,6.69 2.36,2.36 0 0 1 -3.87,-2.23 z"
         style="fill:#37474f"
         id="path145" />
      <path
         d="m 101.14,260.54 a 3.4,3.4 0 0 0 -0.41,-1.73 3.56,3.56 0 0 0 -1.64,0.51 8.55,8.55 0 0 0 -3.87,6.7 3.51,3.51 0 0 0 0.41,1.73 3.59,3.59 0 0 0 1.65,-0.51 8.55,8.55 0 0 0 3.86,-6.7 z"
         style="fill:#263238"
         id="path147" />
      <path
         d="m 253.84,137.4 c -1.23,-0.71 -2.94,-0.61 -4.82,0.48 a 15.06,15.06 0 0 0 -6.82,11.8 c 0,2.19 0.78,3.72 2,4.43 l 27.23,15.72 9.61,-16.71 z"
         style="fill:#3e4932"
         id="path149" />
      <path
         d="m 253.84,137.4 c -1.23,-0.71 -2.94,-0.61 -4.82,0.48 a 15.06,15.06 0 0 0 -6.82,11.8 c 0,2.19 0.78,3.72 2,4.43 l 27.23,15.72 9.61,-16.71 z"
         style="opacity:0.3"
         id="path151" />
      <path
         d="m 243,145.54 a 12.48,12.48 0 0 0 -0.82,4.14 c 0,2.19 0.78,3.72 2,4.43 l 27.23,15.72 3.4,-5.91 z"
         style="opacity:0.3"
         id="path153" />
      <path
         d="m 269.47,165.42 a 15.08,15.08 0 0 1 6.81,-11.81 c 1.87,-1.07 3.56,-1.18 4.79,-0.49 1.23,0.69 2,2.24 2,4.43 a 15,15 0 0 1 -6.82,11.8 c -1.88,1.09 -3.58,1.19 -4.82,0.48 -1.24,-0.71 -1.96,-2.24 -1.96,-4.41 z"
         style="fill:#3e4932"
         id="path155" />
      <path
         d="m 269.47,165.42 a 15.08,15.08 0 0 1 6.81,-11.81 c 1.87,-1.07 3.56,-1.18 4.79,-0.49 1.23,0.69 2,2.24 2,4.43 a 15,15 0 0 1 -6.82,11.8 c -1.88,1.09 -3.58,1.19 -4.82,0.48 -1.24,-0.71 -1.96,-2.24 -1.96,-4.41 z"
         style="opacity:0.2"
         id="path157" />
      <path
         d="m 272.42,163.72 a 8.55,8.55 0 0 1 3.86,-6.7 2.75,2.75 0 0 1 2.72,-0.28 2.7,2.7 0 0 1 1.15,2.51 8.53,8.53 0 0 1 -3.87,6.7 2.35,2.35 0 0 1 -3.86,-2.23 z"
         style="fill:#37474f"
         id="path159" />
      <path
         d="m 278.34,158.24 a 3.51,3.51 0 0 0 -0.41,-1.73 3.59,3.59 0 0 0 -1.65,0.51 8.56,8.56 0 0 0 -3.87,6.7 3.4,3.4 0 0 0 0.42,1.73 3.56,3.56 0 0 0 1.64,-0.51 8.56,8.56 0 0 0 3.87,-6.7 z"
         style="fill:#263238"
         id="path161" />
      <path
         d="m 274.81,80.6 -29.4,-17 a 57,57 0 0 0 -6.74,-10.07 c 15.78,2.75 28.26,12.31 36.14,27.07 z"
         style="fill:#3e4932"
         id="path163" />
      <path
         d="m 274.81,80.6 -29.4,-17 a 57,57 0 0 0 -6.74,-10.07 c 15.78,2.75 28.26,12.31 36.14,27.07 z"
         style="opacity:0.2"
         id="path165" />
      <path
         d="m 269.37,153.78 a 134.11,134.11 0 0 0 2.31,-24.11 c 0,-54.69 -38.39,-76.86 -85.75,-49.51 -47.36,27.35 -85.76,93.84 -85.76,148.53 a 94.8,94.8 0 0 0 2.32,21.46 l -11.06,6.39 a 110.37,110.37 0 0 1 -2,-21.64 c 0,-61.55 43.22,-136.41 96.53,-167.18 53.31,-30.77 96.52,-5.83 96.52,55.73 a 148.8,148.8 0 0 1 -2,24 l -11,6.37"
         style="fill:#37474f"
         id="path167" />
      <path
         d="m 269.38,153.78 a 135,135 0 0 0 2.3,-24.12 c 0,-36.07 -16.7,-58 -41.67,-60.89 7.81,10.42 12.29,25.29 12.29,44 a 135.26,135.26 0 0 1 -2.3,24.05 z"
         style="fill:#263238"
         id="path169" />
      <path
         d="M 252.43,60 C 235.11,51 211.7,52.86 185.93,67.74 132.61,98.49 89.4,173.34 89.4,234.91 a 110.09,110.09 0 0 0 2,21.62 L 62.07,239.59 A 108.88,108.88 0 0 1 60,218 c 0,-61.56 43.21,-136.41 96.53,-167.19 26.63,-15.38 50.73,-16.83 68.2,-6.76 4.48,2.54 20.97,12.07 27.7,15.95 z"
         style="fill:#455a64"
         id="path171" />
      <path
         d="m 76.42,231.21 a 4.72,4.72 0 0 1 -2.31,-0.7 10.94,10.94 0 0 1 -4.94,-8.51 c 0,-2.28 1.18,-3.75 3,-3.75 a 4.7,4.7 0 0 1 2.31,0.69 11,11 0 0 1 4.94,8.56 c -0.01,2.23 -1.19,3.71 -3,3.71 z"
         style="fill:#263238"
         id="path173" />
      <path
         d="M 256.79,54.09 A 57.13,57.13 0 0 0 229,47.31 c -14.73,0 -30.44,4.76 -46.71,14.14 -37.65,21.73 -70.5,64.8 -87.6,110.21 l -29.38,-17 c 17.1,-45.41 50,-88.48 87.6,-110.21 16.27,-9.38 32,-14.16 46.71,-14.16 a 56.86,56.86 0 0 1 28.73,7.34 c 4.65,2.74 22.22,12.86 28.44,16.46 z"
         style="fill:#3e4932"
         id="path175" />
      <path
         d="M 256.79,54.09 A 57.13,57.13 0 0 0 229,47.31 c -14.73,0 -30.44,4.76 -46.71,14.14 -37.65,21.73 -70.5,64.8 -87.6,110.21 l -29.38,-17 c 17.1,-45.41 50,-88.48 87.6,-110.21 16.27,-9.38 32,-14.16 46.71,-14.16 a 56.86,56.86 0 0 1 28.73,7.34 c 4.65,2.74 22.22,12.86 28.44,16.46 z"
         style="opacity:0.6;fill:#ffffff"
         id="path177" />
      <path
         d="M 274.8,80.59 C 265.38,63 249.39,52.73 229,52.73 c -13.77,0 -28.58,4.51 -44,13.42 -36.9,21.3 -69.07,63.68 -85.61,108.23 l -4.7,-2.72 c 17.1,-45.41 49.95,-88.48 87.6,-110.21 16.27,-9.38 32,-14.14 46.71,-14.14 21.46,0 38.51,10.14 49,27.75 z"
         style="fill:#3e4932"
         id="path179" />
    </g>
  </g>
</svg>
