<?xml version="1.0" standalone="no"?>
<!DOCTYPE svg PUBLIC "-//W3C//DTD SVG 20010904//EN"
 "http://www.w3.org/TR/2001/REC-SVG-20010904/DTD/svg10.dtd">
<svg version="1.0" xmlns="http://www.w3.org/2000/svg"
 width="700.000000pt" height="700.000000pt" viewBox="0 0 700.000000 700.000000"
 preserveAspectRatio="xMidYMid meet">
<metadata>
Created by potrace 1.14, written by Peter Selinger 2001-2017
</metadata>
<g transform="translate(0.000000,700.000000) scale(0.100000,-0.100000)"
fill="#000000" stroke="none">
<path d="M3939 6986 c-2 -2 -26 -6 -54 -10 -124 -15 -301 -63 -412 -112 -17
-8 -34 -14 -37 -14 -4 0 -60 -27 -125 -59 -303 -151 -541 -329 -826 -615 -88
-89 -171 -175 -185 -191 -98 -118 -165 -201 -217 -270 -81 -108 -303 -445
-303 -461 0 -2 -12 -23 -27 -47 -78 -123 -303 -606 -303 -650 0 -8 18 -24 39
-35 86 -45 82 -30 39 -161 -56 -168 -99 -331 -133 -501 -57 -286 -67 -663 -25
-915 5 -33 10 -61 10 -62 0 0 26 -16 58 -33 31 -18 58 -34 60 -35 1 -1 -10
-25 -24 -54 -30 -57 -41 -132 -25 -173 6 -16 30 -39 58 -55 43 -25 49 -32 52
-66 2 -30 -4 -49 -30 -86 -27 -39 -56 -61 -152 -117 -81 -47 -135 -86 -168
-122 -87 -95 -139 -229 -155 -402 -3 -36 -15 -96 -26 -135 -13 -46 -21 -110
-23 -185 -3 -103 0 -140 20 -260 12 -69 77 -247 130 -355 104 -211 263 -411
429 -536 115 -87 182 -121 324 -159 41 -12 95 -31 120 -44 100 -51 178 -67
310 -65 142 1 160 7 307 91 80 45 114 59 172 67 96 15 130 29 323 141 208 120
277 184 339 312 88 182 107 416 55 677 -22 112 -22 110 -48 191 -122 379 -345
724 -636 979 -66 59 -211 153 -295 192 -102 48 -214 78 -314 84 -40 2 -76 7
-79 9 -2 3 -6 18 -8 33 -2 15 -7 53 -11 83 -16 114 -8 497 12 601 3 13 10 51
15 84 9 50 29 147 45 215 127 536 437 1130 839 1605 67 79 273 286 361 362
287 247 632 433 910 488 116 23 328 33 352 16 14 -10 71 -104 104 -172 43 -89
91 -235 105 -323 3 -21 8 -48 10 -60 33 -162 20 -607 -22 -758 -3 -11 12 -25
53 -49 32 -18 60 -34 62 -36 2 -1 -3 -11 -11 -20 -24 -28 -57 -106 -60 -144
-5 -69 8 -92 75 -132 l62 -36 0 -206 c0 -113 -2 -205 -5 -205 -3 0 -32 10 -65
21 -91 30 -112 33 -215 33 -117 0 -160 -13 -300 -95 -77 -45 -120 -63 -160
-69 -31 -4 -76 -14 -100 -21 -46 -13 -162 -71 -190 -94 -8 -7 -20 -14 -25 -16
-6 -2 -54 -29 -108 -59 -153 -85 -238 -183 -292 -337 -130 -374 0 -936 324
-1398 287 -409 656 -655 983 -655 107 0 191 27 325 106 65 37 132 75 148 84
85 44 185 130 221 190 9 14 41 40 72 58 138 79 159 92 201 128 76 66 148 200
167 310 2 16 7 35 9 43 3 7 8 61 11 120 5 111 9 130 43 250 17 61 20 95 17
185 -2 61 -7 122 -10 136 -3 14 -11 50 -17 80 -29 140 -136 361 -244 505 -82
108 -255 270 -307 287 -10 4 -13 48 -14 181 -1 168 1 181 26 179 3 0 23 12 44
26 81 55 136 178 118 262 -7 29 -18 41 -71 72 l-63 36 45 26 c39 23 46 32 51
69 3 23 8 62 11 87 26 189 25 551 -1 673 -3 12 -7 36 -9 52 -15 100 -78 300
-129 405 -20 40 -36 75 -36 77 0 2 9 -1 20 -7 11 -6 25 -8 30 -5 15 9 54 88
52 103 -6 29 -102 152 -177 227 -74 74 -155 135 -262 196 -23 13 -156 90 -295
171 -335 195 -368 209 -589 265 -28 6 -343 15 -350 9z m1355 -2624 l30 -18 0
-187 c1 -103 -2 -187 -5 -187 -4 0 -19 3 -35 6 l-29 5 0 200 c0 109 2 199 5
199 3 0 18 -8 34 -18z"/>
</g>
</svg>
